<svg width="29" height="24" viewBox="0 0 29 24" fill="none" xmlns="http://www.w3.org/2000/svg">
<path d="M5.316 6.088H6.324V10.386H11.728V6.088H12.736V16H11.728V11.31H6.324V16H5.316V6.088ZM15.3648 6.088H18.6548C19.2708 6.088 19.8868 6.19067 20.5028 6.396C21.1282 6.60133 21.6882 6.914 22.1828 7.334C22.6868 7.74467 23.0928 8.26267 23.4008 8.888C23.7088 9.504 23.8628 10.2227 23.8628 11.044C23.8628 11.8747 23.7088 12.598 23.4008 13.214C23.0928 13.83 22.6868 14.348 22.1828 14.768C21.6882 15.1787 21.1282 15.4867 20.5028 15.692C19.8868 15.8973 19.2708 16 18.6548 16H15.3648V6.088ZM16.3728 15.104H18.3748C19.1215 15.104 19.7702 14.9873 20.3208 14.754C20.8808 14.5207 21.3428 14.2173 21.7068 13.844C22.0708 13.4613 22.3415 13.0273 22.5188 12.542C22.7055 12.0567 22.7988 11.5573 22.7988 11.044C22.7988 10.5307 22.7055 10.0313 22.5188 9.546C22.3415 9.06067 22.0708 8.63133 21.7068 8.258C21.3428 7.87533 20.8808 7.56733 20.3208 7.334C19.7702 7.10067 19.1215 6.984 18.3748 6.984H16.3728V15.104Z" fill="white"/>
<rect x="0.5" y="0.5" width="28" height="23" rx="1.5" stroke="#4D4D4D"/>
</svg>
